<svg id="visual" viewBox="0 0 900 600" width="900" height="600" xmlns="http://www.w3.org/2000/svg" xmlns:xlink="http://www.w3.org/1999/xlink" version="1.1"><rect x="0" y="0" width="900" height="600" fill="#911d1d"></rect><path d="M0 251L129 251L129 344L257 344L257 296L386 296L386 356L514 356L514 321L643 321L643 369L771 369L771 340L900 340L900 335L900 601L900 601L771 601L771 601L643 601L643 601L514 601L514 601L386 601L386 601L257 601L257 601L129 601L129 601L0 601Z" fill="#bc0627"></path><path d="M0 379L129 379L129 359L257 359L257 440L386 440L386 393L514 393L514 367L643 367L643 443L771 443L771 405L900 405L900 354L900 601L900 601L771 601L771 601L643 601L643 601L514 601L514 601L386 601L386 601L257 601L257 601L129 601L129 601L0 601Z" fill="#9f0918"></path><path d="M0 498L129 498L129 487L257 487L257 497L386 497L386 533L514 533L514 518L643 518L643 454L771 454L771 456L900 456L900 529L900 601L900 601L771 601L771 601L643 601L643 601L514 601L514 601L386 601L386 601L257 601L257 601L129 601L129 601L0 601Z" fill="#830909"></path></svg>