<svg id="visual" viewBox="0 0 900 600" width="900" height="600" xmlns="http://www.w3.org/2000/svg" xmlns:xlink="http://www.w3.org/1999/xlink" version="1.1"><rect x="0" y="0" width="900" height="600" fill="#a50404"></rect><path d="M0 465L129 476L257 403L386 414L514 425L643 394L771 447L900 440L900 601L771 601L643 601L514 601L386 601L257 601L129 601L0 601Z" fill="#f5730a"></path><path d="M0 503L129 497L257 466L386 488L514 506L643 471L771 453L900 442L900 601L771 601L643 601L514 601L386 601L257 601L129 601L0 601Z" fill="#da5b09"></path><path d="M0 468L129 513L257 492L386 527L514 474L643 486L771 483L900 529L900 601L771 601L643 601L514 601L386 601L257 601L129 601L0 601Z" fill="#be4407"></path><path d="M0 510L129 555L257 553L386 555L514 521L643 551L771 548L900 528L900 601L771 601L643 601L514 601L386 601L257 601L129 601L0 601Z" fill="#a32d04"></path><path d="M0 550L129 553L257 548L386 539L514 554L643 540L771 580L900 582L900 601L771 601L643 601L514 601L386 601L257 601L129 601L0 601Z" fill="#871400"></path></svg>