<svg id="visual" viewBox="0 0 900 600" width="900" height="600" xmlns="http://www.w3.org/2000/svg" xmlns:xlink="http://www.w3.org/1999/xlink" version="1.1"><rect x="0" y="0" width="900" height="600" fill="#911d1d"></rect><path d="M0 403L129 415L257 441L386 415L514 486L643 393L771 401L900 429L900 601L771 601L643 601L514 601L386 601L257 601L129 601L0 601Z" fill="#f5730a"></path><path d="M0 492L129 496L257 504L386 450L514 435L643 432L771 447L900 508L900 601L771 601L643 601L514 601L386 601L257 601L129 601L0 601Z" fill="#da5b09"></path><path d="M0 469L129 513L257 481L386 489L514 489L643 515L771 526L900 511L900 601L771 601L643 601L514 601L386 601L257 601L129 601L0 601Z" fill="#be4407"></path><path d="M0 556L129 529L257 534L386 554L514 533L643 531L771 523L900 507L900 601L771 601L643 601L514 601L386 601L257 601L129 601L0 601Z" fill="#a32d04"></path><path d="M0 581L129 551L257 558L386 574L514 570L643 561L771 539L900 553L900 601L771 601L643 601L514 601L386 601L257 601L129 601L0 601Z" fill="#871400"></path></svg>