<svg id="visual" viewBox="0 0 900 600" width="900" height="600" xmlns="http://www.w3.org/2000/svg" xmlns:xlink="http://www.w3.org/1999/xlink" version="1.1"><rect x="0" y="0" width="900" height="600" fill="#911d1d"></rect><path d="M0 366L21.5 370C43 374 86 382 128.8 381.8C171.7 381.7 214.3 373.3 257.2 379.5C300 385.7 343 406.3 385.8 419.7C428.7 433 471.3 439 514.2 435C557 431 600 417 642.8 414.7C685.7 412.3 728.3 421.7 771.2 412.8C814 404 857 377 878.5 363.5L900 350L900 601L878.5 601C857 601 814 601 771.2 601C728.3 601 685.7 601 642.8 601C600 601 557 601 514.2 601C471.3 601 428.7 601 385.8 601C343 601 300 601 257.2 601C214.3 601 171.7 601 128.8 601C86 601 43 601 21.5 601L0 601Z" fill="#c62368"></path><path d="M0 453L21.5 450.5C43 448 86 443 128.8 438C171.7 433 214.3 428 257.2 431.7C300 435.3 343 447.7 385.8 449C428.7 450.3 471.3 440.7 514.2 442.2C557 443.7 600 456.3 642.8 453.5C685.7 450.7 728.3 432.3 771.2 425.3C814 418.3 857 422.7 878.5 424.8L900 427L900 601L878.5 601C857 601 814 601 771.2 601C728.3 601 685.7 601 642.8 601C600 601 557 601 514.2 601C471.3 601 428.7 601 385.8 601C343 601 300 601 257.2 601C214.3 601 171.7 601 128.8 601C86 601 43 601 21.5 601L0 601Z" fill="#d53867"></path><path d="M0 455L21.5 456C43 457 86 459 128.8 466.7C171.7 474.3 214.3 487.7 257.2 492.7C300 497.7 343 494.3 385.8 490.8C428.7 487.3 471.3 483.7 514.2 479C557 474.3 600 468.7 642.8 469.7C685.7 470.7 728.3 478.3 771.2 474.5C814 470.7 857 455.3 878.5 447.7L900 440L900 601L878.5 601C857 601 814 601 771.2 601C728.3 601 685.7 601 642.8 601C600 601 557 601 514.2 601C471.3 601 428.7 601 385.8 601C343 601 300 601 257.2 601C214.3 601 171.7 601 128.8 601C86 601 43 601 21.5 601L0 601Z" fill="#e34c67"></path><path d="M0 507L21.5 509.8C43 512.7 86 518.3 128.8 516C171.7 513.7 214.3 503.3 257.2 496.3C300 489.3 343 485.7 385.8 487.5C428.7 489.3 471.3 496.7 514.2 506.3C557 516 600 528 642.8 532.3C685.7 536.7 728.3 533.3 771.2 529.3C814 525.3 857 520.7 878.5 518.3L900 516L900 601L878.5 601C857 601 814 601 771.2 601C728.3 601 685.7 601 642.8 601C600 601 557 601 514.2 601C471.3 601 428.7 601 385.8 601C343 601 300 601 257.2 601C214.3 601 171.7 601 128.8 601C86 601 43 601 21.5 601L0 601Z" fill="#ef5f67"></path><path d="M0 539L21.5 543C43 547 86 555 128.8 553.5C171.7 552 214.3 541 257.2 537.2C300 533.3 343 536.7 385.8 540.2C428.7 543.7 471.3 547.3 514.2 551C557 554.7 600 558.3 642.8 554.7C685.7 551 728.3 540 771.2 540.8C814 541.7 857 554.3 878.5 560.7L900 567L900 601L878.5 601C857 601 814 601 771.2 601C728.3 601 685.7 601 642.8 601C600 601 557 601 514.2 601C471.3 601 428.7 601 385.8 601C343 601 300 601 257.2 601C214.3 601 171.7 601 128.8 601C86 601 43 601 21.5 601L0 601Z" fill="#fa7268"></path></svg>