<svg id="visual" viewBox="0 0 900 600" width="900" height="600" xmlns="http://www.w3.org/2000/svg" xmlns:xlink="http://www.w3.org/1999/xlink" version="1.1"><g stroke-width="1" stroke-linejoin="bevel"><path d="M419 315L395 378L505 408Z" fill="#7f1516" stroke="#7f1516"></path><path d="M505 408L500 283L419 315Z" fill="#69090c" stroke="#69090c"></path><path d="M395 378L463 465L505 408Z" fill="#7a1213" stroke="#7a1213"></path><path d="M395 378L411 471L463 465Z" fill="#851718" stroke="#851718"></path><path d="M581 475L603 420L505 408Z" fill="#911d1d" stroke="#911d1d"></path><path d="M505 408L603 420L500 283Z" fill="#590101" stroke="#590101"></path><path d="M283 284L305 421L395 378Z" fill="#69090c" stroke="#69090c"></path><path d="M395 378L305 421L411 471Z" fill="#911d1d" stroke="#911d1d"></path><path d="M463 465L581 475L505 408Z" fill="#740f11" stroke="#740f11"></path><path d="M538 600L581 475L463 465Z" fill="#851718" stroke="#851718"></path><path d="M637 285L583 232L500 283Z" fill="#8b1a1b" stroke="#8b1a1b"></path><path d="M408 175L283 284L419 315Z" fill="#640608" stroke="#640608"></path><path d="M408 175L419 315L500 283Z" fill="#69090c" stroke="#69090c"></path><path d="M419 315L283 284L395 378Z" fill="#7f1516" stroke="#7f1516"></path><path d="M583 232L499 177L500 283Z" fill="#911d1d" stroke="#911d1d"></path><path d="M603 420L637 285L500 283Z" fill="#911d1d" stroke="#911d1d"></path><path d="M499 177L408 175L500 283Z" fill="#8b1a1b" stroke="#8b1a1b"></path><path d="M670 501L671 365L603 420Z" fill="#69090c" stroke="#69090c"></path><path d="M603 420L671 365L637 285Z" fill="#7a1213" stroke="#7a1213"></path><path d="M305 421L313 534L411 471Z" fill="#7a1213" stroke="#7a1213"></path><path d="M411 471L421 600L463 465Z" fill="#5e0305" stroke="#5e0305"></path><path d="M203 424L313 534L305 421Z" fill="#8b1a1b" stroke="#8b1a1b"></path><path d="M671 365L673 285L637 285Z" fill="#851718" stroke="#851718"></path><path d="M637 285L666 185L583 232Z" fill="#5e0305" stroke="#5e0305"></path><path d="M583 232L505 130L499 177Z" fill="#8b1a1b" stroke="#8b1a1b"></path><path d="M262 193L233 300L283 284Z" fill="#851718" stroke="#851718"></path><path d="M283 284L233 300L305 421Z" fill="#5e0305" stroke="#5e0305"></path><path d="M313 534L421 600L411 471Z" fill="#6e0c0f" stroke="#6e0c0f"></path><path d="M636 100L505 130L583 232Z" fill="#640608" stroke="#640608"></path><path d="M499 177L422 115L408 175Z" fill="#6e0c0f" stroke="#6e0c0f"></path><path d="M421 600L538 600L463 465Z" fill="#7a1213" stroke="#7a1213"></path><path d="M581 475L670 501L603 420Z" fill="#6e0c0f" stroke="#6e0c0f"></path><path d="M561 600L670 501L581 475Z" fill="#740f11" stroke="#740f11"></path><path d="M671 365L816 369L673 285Z" fill="#7f1516" stroke="#7f1516"></path><path d="M505 130L422 115L499 177Z" fill="#69090c" stroke="#69090c"></path><path d="M408 175L262 193L283 284Z" fill="#851718" stroke="#851718"></path><path d="M538 600L561 600L581 475Z" fill="#6e0c0f" stroke="#6e0c0f"></path><path d="M261 137L262 193L408 175Z" fill="#590101" stroke="#590101"></path><path d="M233 300L203 424L305 421Z" fill="#740f11" stroke="#740f11"></path><path d="M673 285L666 185L637 285Z" fill="#911d1d" stroke="#911d1d"></path><path d="M313 534L283 600L421 600Z" fill="#590101" stroke="#590101"></path><path d="M201 600L283 600L313 534Z" fill="#590101" stroke="#590101"></path><path d="M422 115L261 137L408 175Z" fill="#851718" stroke="#851718"></path><path d="M262 193L170 198L233 300Z" fill="#7a1213" stroke="#7a1213"></path><path d="M108 411L163 518L203 424Z" fill="#6e0c0f" stroke="#6e0c0f"></path><path d="M666 185L636 100L583 232Z" fill="#7f1516" stroke="#7f1516"></path><path d="M526 0L392 0L422 115Z" fill="#69090c" stroke="#69090c"></path><path d="M820 174L669 120L666 185Z" fill="#851718" stroke="#851718"></path><path d="M666 185L669 120L636 100Z" fill="#590101" stroke="#590101"></path><path d="M108 411L203 424L233 300Z" fill="#590101" stroke="#590101"></path><path d="M203 424L163 518L313 534Z" fill="#8b1a1b" stroke="#8b1a1b"></path><path d="M261 137L170 198L262 193Z" fill="#740f11" stroke="#740f11"></path><path d="M723 600L787 475L670 501Z" fill="#640608" stroke="#640608"></path><path d="M670 501L787 475L671 365Z" fill="#5e0305" stroke="#5e0305"></path><path d="M673 285L815 274L666 185Z" fill="#5e0305" stroke="#5e0305"></path><path d="M163 518L201 600L313 534Z" fill="#740f11" stroke="#740f11"></path><path d="M71 328L108 411L233 300Z" fill="#590101" stroke="#590101"></path><path d="M163 518L108 600L201 600Z" fill="#640608" stroke="#640608"></path><path d="M561 600L723 600L670 501Z" fill="#851718" stroke="#851718"></path><path d="M787 475L816 369L671 365Z" fill="#5e0305" stroke="#5e0305"></path><path d="M273 0L199 113L261 137Z" fill="#911d1d" stroke="#911d1d"></path><path d="M261 137L199 113L170 198Z" fill="#6e0c0f" stroke="#6e0c0f"></path><path d="M392 0L261 137L422 115Z" fill="#7a1213" stroke="#7a1213"></path><path d="M816 369L815 274L673 285Z" fill="#69090c" stroke="#69090c"></path><path d="M526 0L422 115L505 130Z" fill="#8b1a1b" stroke="#8b1a1b"></path><path d="M626 0L526 0L636 100Z" fill="#851718" stroke="#851718"></path><path d="M636 100L526 0L505 130Z" fill="#7a1213" stroke="#7a1213"></path><path d="M108 411L106 505L163 518Z" fill="#590101" stroke="#590101"></path><path d="M66 182L71 328L170 198Z" fill="#590101" stroke="#590101"></path><path d="M170 198L71 328L233 300Z" fill="#7a1213" stroke="#7a1213"></path><path d="M108 411L0 522L106 505Z" fill="#69090c" stroke="#69090c"></path><path d="M724 0L626 0L636 100Z" fill="#740f11" stroke="#740f11"></path><path d="M724 0L636 100L669 120Z" fill="#7f1516" stroke="#7f1516"></path><path d="M392 0L273 0L261 137Z" fill="#5e0305" stroke="#5e0305"></path><path d="M900 194L820 174L815 274Z" fill="#6e0c0f" stroke="#6e0c0f"></path><path d="M815 274L820 174L666 185Z" fill="#7f1516" stroke="#7f1516"></path><path d="M0 522L108 600L106 505Z" fill="#6e0c0f" stroke="#6e0c0f"></path><path d="M106 505L108 600L163 518Z" fill="#7a1213" stroke="#7a1213"></path><path d="M723 600L809 600L787 475Z" fill="#7f1516" stroke="#7f1516"></path><path d="M900 481L900 367L816 369Z" fill="#911d1d" stroke="#911d1d"></path><path d="M76 134L66 182L170 198Z" fill="#911d1d" stroke="#911d1d"></path><path d="M76 134L170 198L199 113Z" fill="#8b1a1b" stroke="#8b1a1b"></path><path d="M900 481L816 369L787 475Z" fill="#7f1516" stroke="#7f1516"></path><path d="M816 369L900 367L815 274Z" fill="#69090c" stroke="#69090c"></path><path d="M900 106L787 70L820 174Z" fill="#6e0c0f" stroke="#6e0c0f"></path><path d="M820 174L787 70L669 120Z" fill="#7f1516" stroke="#7f1516"></path><path d="M181 0L76 134L199 113Z" fill="#8b1a1b" stroke="#8b1a1b"></path><path d="M787 70L724 0L669 120Z" fill="#851718" stroke="#851718"></path><path d="M900 367L900 264L815 274Z" fill="#7f1516" stroke="#7f1516"></path><path d="M809 600L900 481L787 475Z" fill="#740f11" stroke="#740f11"></path><path d="M71 328L0 387L108 411Z" fill="#5e0305" stroke="#5e0305"></path><path d="M0 305L0 387L71 328Z" fill="#8b1a1b" stroke="#8b1a1b"></path><path d="M0 305L71 328L66 182Z" fill="#851718" stroke="#851718"></path><path d="M273 0L181 0L199 113Z" fill="#7a1213" stroke="#7a1213"></path><path d="M0 171L0 305L66 182Z" fill="#851718" stroke="#851718"></path><path d="M900 264L900 194L815 274Z" fill="#851718" stroke="#851718"></path><path d="M787 70L789 0L724 0Z" fill="#7f1516" stroke="#7f1516"></path><path d="M0 387L0 522L108 411Z" fill="#911d1d" stroke="#911d1d"></path><path d="M900 0L789 0L787 70Z" fill="#740f11" stroke="#740f11"></path><path d="M0 98L0 171L76 134Z" fill="#5e0305" stroke="#5e0305"></path><path d="M76 134L0 171L66 182Z" fill="#590101" stroke="#590101"></path><path d="M809 600L900 600L900 481Z" fill="#69090c" stroke="#69090c"></path><path d="M900 194L900 106L820 174Z" fill="#740f11" stroke="#740f11"></path><path d="M0 522L0 600L108 600Z" fill="#7a1213" stroke="#7a1213"></path><path d="M71 0L0 98L76 134Z" fill="#69090c" stroke="#69090c"></path><path d="M181 0L71 0L76 134Z" fill="#69090c" stroke="#69090c"></path><path d="M900 106L900 0L787 70Z" fill="#69090c" stroke="#69090c"></path><path d="M71 0L0 0L0 98Z" fill="#5e0305" stroke="#5e0305"></path></g></svg>