<svg id="visual" viewBox="0 0 900 600" width="900" height="600" xmlns="http://www.w3.org/2000/svg" xmlns:xlink="http://www.w3.org/1999/xlink" version="1.1"><path d="M0 139L13.7 142C27.3 145 54.7 151 82 140C109.3 129 136.7 101 163.8 97C191 93 218 113 245.2 113C272.3 113 299.7 93 327 87C354.3 81 381.7 89 409 88C436.3 87 463.7 77 491 85C518.3 93 545.7 119 573 122C600.3 125 627.7 105 654.8 102C682 99 709 113 736.2 123C763.3 133 790.7 139 818 138C845.3 137 872.7 129 886.3 125L900 121L900 0L886.3 0C872.7 0 845.3 0 818 0C790.7 0 763.3 0 736.2 0C709 0 682 0 654.8 0C627.7 0 600.3 0 573 0C545.7 0 518.3 0 491 0C463.7 0 436.3 0 409 0C381.7 0 354.3 0 327 0C299.7 0 272.3 0 245.2 0C218 0 191 0 163.8 0C136.7 0 109.3 0 82 0C54.7 0 27.3 0 13.7 0L0 0Z" fill="#6b161a"></path><path d="M0 223L13.7 223C27.3 223 54.7 223 82 213C109.3 203 136.7 183 163.8 174C191 165 218 167 245.2 163C272.3 159 299.7 149 327 152C354.3 155 381.7 171 409 165C436.3 159 463.7 131 491 134C518.3 137 545.7 171 573 183C600.3 195 627.7 185 654.8 178C682 171 709 167 736.2 172C763.3 177 790.7 191 818 197C845.3 203 872.7 201 886.3 200L900 199L900 119L886.3 123C872.7 127 845.3 135 818 136C790.7 137 763.3 131 736.2 121C709 111 682 97 654.8 100C627.7 103 600.3 123 573 120C545.7 117 518.3 91 491 83C463.7 75 436.3 85 409 86C381.7 87 354.3 79 327 85C299.7 91 272.3 111 245.2 111C218 111 191 91 163.8 95C136.7 99 109.3 127 82 138C54.7 149 27.3 143 13.7 140L0 137Z" fill="#7e191c"></path><path d="M0 391L13.7 401C27.3 411 54.7 431 82 428C109.3 425 136.7 399 163.8 391C191 383 218 393 245.2 394C272.3 395 299.7 387 327 392C354.3 397 381.7 415 409 389C436.3 363 463.7 293 491 275C518.3 257 545.7 291 573 307C600.3 323 627.7 321 654.8 324C682 327 709 335 736.2 351C763.3 367 790.7 391 818 384C845.3 377 872.7 339 886.3 320L900 301L900 197L886.3 198C872.7 199 845.3 201 818 195C790.7 189 763.3 175 736.2 170C709 165 682 169 654.8 176C627.7 183 600.3 193 573 181C545.7 169 518.3 135 491 132C463.7 129 436.3 157 409 163C381.7 169 354.3 153 327 150C299.7 147 272.3 157 245.2 161C218 165 191 163 163.8 172C136.7 181 109.3 201 82 211C54.7 221 27.3 221 13.7 221L0 221Z" fill="#911d1d"></path><path d="M0 523L13.7 528C27.3 533 54.7 543 82 542C109.3 541 136.7 529 163.8 520C191 511 218 505 245.2 504C272.3 503 299.7 507 327 513C354.3 519 381.7 527 409 522C436.3 517 463.7 499 491 492C518.3 485 545.7 489 573 499C600.3 509 627.7 525 654.8 522C682 519 709 497 736.2 495C763.3 493 790.7 511 818 514C845.3 517 872.7 505 886.3 499L900 493L900 299L886.3 318C872.7 337 845.3 375 818 382C790.7 389 763.3 365 736.2 349C709 333 682 325 654.8 322C627.7 319 600.3 321 573 305C545.7 289 518.3 255 491 273C463.7 291 436.3 361 409 387C381.7 413 354.3 395 327 390C299.7 385 272.3 393 245.2 392C218 391 191 381 163.8 389C136.7 397 109.3 423 82 426C54.7 429 27.3 409 13.7 399L0 389Z" fill="#a23633"></path><path d="M0 601L13.7 601C27.3 601 54.7 601 82 601C109.3 601 136.7 601 163.8 601C191 601 218 601 245.2 601C272.3 601 299.7 601 327 601C354.3 601 381.7 601 409 601C436.3 601 463.7 601 491 601C518.3 601 545.7 601 573 601C600.3 601 627.7 601 654.8 601C682 601 709 601 736.2 601C763.3 601 790.7 601 818 601C845.3 601 872.7 601 886.3 601L900 601L900 491L886.3 497C872.7 503 845.3 515 818 512C790.7 509 763.3 491 736.2 493C709 495 682 517 654.8 520C627.7 523 600.3 507 573 497C545.7 487 518.3 483 491 490C463.7 497 436.3 515 409 520C381.7 525 354.3 517 327 511C299.7 505 272.3 501 245.2 502C218 503 191 509 163.8 518C136.7 527 109.3 539 82 540C54.7 541 27.3 531 13.7 526L0 521Z" fill="#b34d49"></path></svg>