<svg id="visual" viewBox="0 0 900 600" width="900" height="600" xmlns="http://www.w3.org/2000/svg" xmlns:xlink="http://www.w3.org/1999/xlink" version="1.1"><path d="M0 115L82 187L164 217L245 223L327 91L409 265L491 193L573 79L655 139L736 169L818 205L900 301L900 0L818 0L736 0L655 0L573 0L491 0L409 0L327 0L245 0L164 0L82 0L0 0Z" fill="#911d1d"></path><path d="M0 217L82 313L164 289L245 313L327 181L409 355L491 247L573 193L655 211L736 271L818 301L900 379L900 299L818 203L736 167L655 137L573 77L491 191L409 263L327 89L245 221L164 215L82 185L0 113Z" fill="#a41b1f"></path><path d="M0 331L82 409L164 373L245 367L327 331L409 421L491 367L573 337L655 277L736 427L818 367L900 445L900 377L818 299L736 269L655 209L573 191L491 245L409 353L327 179L245 311L164 287L82 311L0 215Z" fill="#b81820"></path><path d="M0 373L82 445L164 427L245 421L327 403L409 505L491 409L573 415L655 379L736 475L818 421L900 505L900 443L818 365L736 425L655 275L573 335L491 365L409 419L327 329L245 365L164 371L82 407L0 329Z" fill="#cc1322"></path><path d="M0 601L82 601L164 601L245 601L327 601L409 601L491 601L573 601L655 601L736 601L818 601L900 601L900 503L818 419L736 473L655 377L573 413L491 407L409 503L327 401L245 419L164 425L82 443L0 371Z" fill="#e10923"></path></svg>