<svg id="visual" viewBox="0 0 900 600" width="900" height="600" xmlns="http://www.w3.org/2000/svg" xmlns:xlink="http://www.w3.org/1999/xlink" version="1.1"><path d="M0 103L82 103L82 229L164 229L164 199L245 199L245 157L327 157L327 193L409 193L409 217L491 217L491 175L573 175L573 253L655 253L655 133L736 133L736 199L818 199L818 103L900 103L900 139L900 0L900 0L818 0L818 0L736 0L736 0L655 0L655 0L573 0L573 0L491 0L491 0L409 0L409 0L327 0L327 0L245 0L245 0L164 0L164 0L82 0L82 0L0 0Z" fill="#911d1d"></path><path d="M0 163L82 163L82 283L164 283L164 241L245 241L245 229L327 229L327 247L409 247L409 337L491 337L491 241L573 241L573 307L655 307L655 223L736 223L736 253L818 253L818 223L900 223L900 229L900 137L900 101L818 101L818 197L736 197L736 131L655 131L655 251L573 251L573 173L491 173L491 215L409 215L409 191L327 191L327 155L245 155L245 197L164 197L164 227L82 227L82 101L0 101Z" fill="#a52220"></path><path d="M0 355L82 355L82 439L164 439L164 361L245 361L245 355L327 355L327 373L409 373L409 487L491 487L491 415L573 415L573 385L655 385L655 451L736 451L736 397L818 397L818 439L900 439L900 385L900 227L900 221L818 221L818 251L736 251L736 221L655 221L655 305L573 305L573 239L491 239L491 335L409 335L409 245L327 245L327 227L245 227L245 239L164 239L164 281L82 281L82 161L0 161Z" fill="#b92823"></path><path d="M0 457L82 457L82 541L164 541L164 463L245 463L245 445L327 445L327 427L409 427L409 547L491 547L491 493L573 493L573 487L655 487L655 505L736 505L736 469L818 469L818 517L900 517L900 469L900 383L900 437L818 437L818 395L736 395L736 449L655 449L655 383L573 383L573 413L491 413L491 485L409 485L409 371L327 371L327 353L245 353L245 359L164 359L164 437L82 437L82 353L0 353Z" fill="#ce2e26"></path><path d="M0 601L82 601L82 601L164 601L164 601L245 601L245 601L327 601L327 601L409 601L409 601L491 601L491 601L573 601L573 601L655 601L655 601L736 601L736 601L818 601L818 601L900 601L900 601L900 467L900 515L818 515L818 467L736 467L736 503L655 503L655 485L573 485L573 491L491 491L491 545L409 545L409 425L327 425L327 443L245 443L245 461L164 461L164 539L82 539L82 455L0 455Z" fill="#e33528"></path></svg>